<?xml version="1.0" encoding="UTF-8" standalone="no" ?>
<!DOCTYPE svg PUBLIC "-//W3C//DTD SVG 1.1//EN" "http://www.w3.org/Graphics/SVG/1.1/DTD/svg11.dtd">
<svg xmlns="http://www.w3.org/2000/svg" xmlns:xlink="http://www.w3.org/1999/xlink" version="1.1" width="1080" height="1080" viewBox="0 0 1080 1080" xml:space="preserve">
<desc>Created with Fabric.js 5.2.4</desc>
<defs>
</defs>
<g transform="matrix(1 0 0 1 540 540)" id="39e94ece-77b1-4e21-ba2f-54ba10185b95"  >
<rect style="stroke: none; stroke-width: 1; stroke-dasharray: none; stroke-linecap: butt; stroke-dashoffset: 0; stroke-linejoin: miter; stroke-miterlimit: 4; fill: rgb(255,255,255); fill-rule: nonzero; opacity: 1; visibility: hidden;" vector-effect="non-scaling-stroke"  x="-540" y="-540" rx="0" ry="0" width="1080" height="1080" />
</g>
<g transform="matrix(1 0 0 1 540 540)" id="3c187c4a-fa37-401b-b40f-beb07ab955cf"  >
</g>
<g transform="matrix(8.79 0 0 8.79 540 540)" id="Layer_1"  >
<path style="stroke: none; stroke-width: 1; stroke-dasharray: none; stroke-linecap: butt; stroke-dashoffset: 0; stroke-linejoin: miter; stroke-miterlimit: 4; fill: rgb(82,100,174); fill-rule: evenodd; opacity: 1;"  transform=" translate(-61.44, -61.36)" d="M 89.34 46.85 L 76.2 49.97 C 73.35000000000001 42.5 68.59 38.739999999999995 61.910000000000004 38.739999999999995 C 56.790000000000006 38.739999999999995 52.760000000000005 40.709999999999994 49.86 44.67999999999999 C 46.93 48.61999999999999 45.48 53.91 45.48 60.47999999999999 C 45.48 65.64999999999999 46.08 70.03999999999999 47.309999999999995 73.6 C 48.53999999999999 77.16 50.349999999999994 79.80999999999999 52.73 81.61999999999999 C 55.11 83.39999999999999 57.959999999999994 84.3 61.269999999999996 84.3 C 68.64 84.3 73.67 79.7 76.36 70.5 L 89.34 74.91 C 85.07 88.82 75.6 95.78 60.95 95.78 C 55.72 95.78 50.82 94.49 46.300000000000004 91.92 C 41.78 89.37 38.17 85.46000000000001 35.43000000000001 80.23 C 32.720000000000006 74.97 31.35000000000001 68.73 31.35000000000001 61.45 C 31.35000000000001 54.660000000000004 32.61000000000001 48.72 35.13000000000001 43.6 C 37.62000000000001 38.510000000000005 41.24000000000001 34.54 45.92000000000001 31.69 C 50.60000000000001 28.87 56.08000000000001 27.450000000000003 62.400000000000006 27.450000000000003 C 75.65 27.43 84.63 33.9 89.34 46.85 L 89.34 46.85 z M 61.44 0 C 69.82 0 77.75999999999999 1.56 85.22999999999999 4.68 C 92.67999999999999 7.83 99.24999999999999 12.239999999999998 104.94 17.93 C 110.64 23.62 115.03999999999999 30.2 118.19 37.64 C 121.31 45.11 122.87 53.03 122.87 61.43 C 122.87 72.44 120.10000000000001 82.68 114.57000000000001 92.1 C 109.04 101.55 101.56 109.02 92.15 114.5 C 82.73 119.98 72.49000000000001 122.71000000000001 61.43000000000001 122.71000000000001 C 50.2 122.71000000000001 39.88000000000001 119.97000000000001 30.520000000000007 114.52000000000001 C 21.130000000000006 109.07000000000001 13.680000000000007 101.62 8.210000000000008 92.18 C 2.74 82.77 0 72.5 0 61.44 C 0 50.32 2.74 40.03 8.21 30.61 C 13.690000000000001 21.16 21.16 13.689999999999998 30.61 8.21 C 40.03 2.74 50.32 0 61.44 0 L 61.44 0 z M 61.44 12.05 C 52.4 12.05 44.11 14.270000000000001 36.61 18.700000000000003 C 29.11 23.140000000000004 23.14 29.130000000000003 18.73 36.69 C 14.32 44.269999999999996 12.100000000000001 52.519999999999996 12.100000000000001 61.44 C 12.100000000000001 70.42 14.320000000000002 78.66 18.73 86.16 C 23.14 93.69 29.11 99.63 36.64 104.03999999999999 C 44.2 108.44999999999999 52.44 110.66999999999999 61.45 110.66999999999999 C 70.38 110.66999999999999 78.62 108.47999999999999 86.23 104.1 C 93.81 99.72 99.81 93.78 104.22 86.25 C 108.63 78.75 110.85 70.48 110.85 61.44 C 110.85 52.57 108.63 44.33 104.19999999999999 36.739999999999995 C 99.75999999999999 29.159999999999997 93.76999999999998 23.129999999999995 86.17999999999999 18.699999999999996 C 78.61 14.27 70.37 12.05 61.44 12.05 L 61.44 12.05 z" stroke-linecap="round" />
</g>
<g transform="matrix(NaN NaN NaN NaN 0 0)"  >
<g style=""   >
</g>
</g>
<g transform="matrix(NaN NaN NaN NaN 0 0)"  >
<g style=""   >
</g>
</g>
</svg>