<?xml version="1.0" encoding="UTF-8" standalone="no" ?>
<!DOCTYPE svg PUBLIC "-//W3C//DTD SVG 1.1//EN" "http://www.w3.org/Graphics/SVG/1.1/DTD/svg11.dtd">
<svg xmlns="http://www.w3.org/2000/svg" xmlns:xlink="http://www.w3.org/1999/xlink" version="1.1" width="1080" height="1080" viewBox="0 0 1080 1080" xml:space="preserve">
<desc>Created with Fabric.js 5.2.4</desc>
<defs>
</defs>
<g transform="matrix(1 0 0 1 540 540)" id="34edb544-5a8f-42d4-aff8-3297236b0770"  >
<rect style="stroke: none; stroke-width: 1; stroke-dasharray: none; stroke-linecap: butt; stroke-dashoffset: 0; stroke-linejoin: miter; stroke-miterlimit: 4; fill: rgb(255,255,255); fill-rule: nonzero; opacity: 1; visibility: hidden;" vector-effect="non-scaling-stroke"  x="-540" y="-540" rx="0" ry="0" width="1080" height="1080" />
</g>
<g transform="matrix(1 0 0 1 540 540)" id="fd742b56-921c-4f0e-bc7e-15c32b3d370b"  >
</g>
<g transform="matrix(4.22 0 0 4.22 540 540)"  >
<g style=""   >
		<g transform="matrix(1 0 0 1 -57.21 -3.31)"  >
<path style="stroke: none; stroke-width: 1; stroke-dasharray: none; stroke-linecap: butt; stroke-dashoffset: 0; stroke-linejoin: miter; stroke-miterlimit: 4; fill: rgb(108,117,125); fill-rule: nonzero; opacity: 1;" vector-effect="non-scaling-stroke"  transform=" translate(-70.79, -78.69)" d="M 139.539078 0.229226287 L 9.01110668 82.3993233 C 2.8630435 86.1175452 -0.141748171 90.2806109 0.00513414328 94.8927169 L 0.00513414328 107.3987 C 0.152016542 112.015003 3.22815107 116.106726 9.23772518 119.678065 L 73.8365016 156.965201 C 74.2200744 157.189721 74.6481315 157.32779 75.0908769 157.369337 C 75.5332026 157.410884 75.9793053 157.355068 76.3981299 157.205668 C 76.8165348 157.056687 77.1975896 156.817899 77.5144358 156.505669 C 77.8308624 156.193858 78.0751067 155.816581 78.2303824 155.399854 L 92.7339659 120.349528 L 61.9726038 102.933477 C 61.0858541 102.473525 60.340531 101.781919 59.8155315 100.93168 C 59.4223065 100.292952 59.1604362 99.582041 59.0450286 98.8409146 C 58.9292014 98.0997882 58.9627745 97.3431342 59.1428103 96.6150174 C 59.3228461 95.8864809 59.6459873 95.2015895 60.0937687 94.5997915 C 60.54155 93.9979935 61.1047389 93.4910395 61.750182 93.1091454 L 118.22435 58.4994656 L 141.511498 1.79457086 C 141.604664 1.52898238 141.613057 1.24101743 141.535839 0.970409765 C 141.45862 0.699806302 141.298729 0.459897054 141.079244 0.283782591 C 140.861019 0.109836531 140.592854 0.0106304247 140.314197 0 C 140.035121 -0.00901647533 139.76066 0.071062946 139.530685 0.229226287 L 139.539078 0.229226287 Z" stroke-linecap="round" />
</g>
		<g transform="matrix(1 0 0 1 56.31 3.29)"  >
<path style="stroke: none; stroke-width: 1; stroke-dasharray: none; stroke-linecap: butt; stroke-dashoffset: 0; stroke-linejoin: miter; stroke-miterlimit: 4; fill: rgb(108,117,125); fill-rule: nonzero; opacity: 1;" vector-effect="non-scaling-stroke"  transform=" translate(-184.31, -85.29)" d="M 246.763198 46.0018754 L 183.049829 7.37618014 C 182.680524 7.14582664 182.265896 6.99734956 181.834062 6.94069494 C 181.402648 6.88408228 180.963679 6.92063501 180.547373 7.04787709 C 180.131066 7.17511918 179.746654 7.39015495 179.420575 7.67842207 C 179.094077 7.96673115 178.833466 8.32155696 178.655948 8.71910454 L 163.715914 43.7692636 L 194.036629 61.8567766 C 194.90953 62.3309968 195.635548 63.0402287 196.143341 63.9047363 C 196.651974 64.7721815 196.920139 65.7596506 196.920139 66.7647456 C 196.920139 67.7702603 196.651974 68.7577294 196.143341 69.6247549 C 195.639745 70.4880035 194.911628 71.1989141 194.036629 71.6811079 L 137.126011 105.170285 L 112.953371 161.434621 C 112.719199 161.701947 112.599595 162.050688 112.619739 162.405723 C 112.640302 162.760339 112.799355 163.092713 113.062484 163.331502 C 113.191321 163.449008 113.3424 163.538816 113.506908 163.597149 C 113.670997 163.655063 113.845157 163.679823 114.019318 163.669331 C 114.193059 163.659259 114.363022 163.614775 114.519557 163.537976 C 114.676092 163.461178 114.81542 163.353744 114.929988 163.222389 L 156.682347 137.992197 L 173.162548 161.661239 C 173.522619 162.206802 174.011528 162.654584 174.586467 162.965555 C 175.160987 163.276945 175.803492 163.441454 176.456909 163.444811 L 216.010229 163.444811 C 216.731212 163.447329 217.439185 163.250087 218.055251 162.875327 C 218.671738 162.500567 219.171977 161.962978 219.501833 161.321312 C 219.840502 160.678387 220.001233 159.956145 219.966401 159.229707 C 219.931569 158.503688 219.703271 157.799912 219.304591 157.191819 L 192.496462 116.106726 L 246.771591 83.2890107 C 252.923864 79.5665921 256 75.3993298 256 70.7830272 L 256 58.5036622 C 256 53.8873596 252.923864 49.7242939 246.767395 46.0018754 L 246.763198 46.0018754 Z" stroke-linecap="round" />
</g>
</g>
</g>
<g transform="matrix(NaN NaN NaN NaN 0 0)"  >
<g style=""   >
</g>
</g>
<g transform="matrix(NaN NaN NaN NaN 0 0)"  >
<g style=""   >
</g>
</g>
</svg>