<?xml version="1.0" encoding="UTF-8" standalone="no" ?>
<!DOCTYPE svg PUBLIC "-//W3C//DTD SVG 1.1//EN" "http://www.w3.org/Graphics/SVG/1.1/DTD/svg11.dtd">
<svg xmlns="http://www.w3.org/2000/svg" xmlns:xlink="http://www.w3.org/1999/xlink" version="1.1" width="1080" height="1080" viewBox="0 0 1080 1080" xml:space="preserve">
<desc>Created with Fabric.js 5.2.4</desc>
<defs>
</defs>
<g transform="matrix(1 0 0 1 540 540)" id="0ad7bfc3-3e9e-437b-9a16-7adead5861e8"  >
<rect style="stroke: none; stroke-width: 1; stroke-dasharray: none; stroke-linecap: butt; stroke-dashoffset: 0; stroke-linejoin: miter; stroke-miterlimit: 4; fill: rgb(255,255,255); fill-rule: nonzero; opacity: 1; visibility: hidden;" vector-effect="non-scaling-stroke"  x="-540" y="-540" rx="0" ry="0" width="1080" height="1080" />
</g>
<g transform="matrix(1 0 0 1 540 540)" id="cfedd1b3-1d41-49e8-956d-5746e22d7ef1"  >
</g>
<g transform="matrix(45 0 0 45 540 540)" id="Layer_21"  >
<path style="stroke: none; stroke-width: 1; stroke-dasharray: none; stroke-linecap: butt; stroke-dashoffset: 0; stroke-linejoin: miter; stroke-miterlimit: 4; fill: rgb(108,117,125); fill-rule: nonzero; opacity: 1;"  transform=" translate(-12.38, -12)" d="M 16.75 9 L 13.5 9 L 13.5 7 C 13.5 6.447715250169207 13.947715250169207 6 14.5 6 L 16.5 6 L 16.5 3 L 14 3 C 11.790861000676827 3 10 4.790861000676826 10 7 L 10 9 L 8 9 L 8 12 L 10 12 L 10 21 L 13.5 21 L 13.5 12 L 16 12 Z" stroke-linecap="round" />
</g>
<g transform="matrix(NaN NaN NaN NaN 0 0)"  >
<g style=""   >
</g>
</g>
</svg>