<?xml version="1.0" encoding="UTF-8" standalone="no" ?>
<!DOCTYPE svg PUBLIC "-//W3C//DTD SVG 1.1//EN" "http://www.w3.org/Graphics/SVG/1.1/DTD/svg11.dtd">
<svg xmlns="http://www.w3.org/2000/svg" xmlns:xlink="http://www.w3.org/1999/xlink" version="1.1" width="1080" height="1080" viewBox="0 0 1080 1080" xml:space="preserve">
<desc>Created with Fabric.js 5.2.4</desc>
<defs>
</defs>
<g transform="matrix(1 0 0 1 540 540)" id="934f31c0-cfa7-440f-b50a-175f0e7cdada"  >
</g>
<g transform="matrix(1 0 0 1 540 540)" id="14fbb055-3351-4619-9175-a7c375b0a109"  >
<rect style="stroke: none; stroke-width: 1; stroke-dasharray: none; stroke-linecap: butt; stroke-dashoffset: 0; stroke-linejoin: miter; stroke-miterlimit: 4; fill: rgb(255,255,255); fill-rule: nonzero; opacity: 1; visibility: hidden;" vector-effect="non-scaling-stroke"  x="-540" y="-540" rx="0" ry="0" width="1080" height="1080" />
</g>
<g transform="matrix(2.18 0 0 2.18 540.64 540.62)"  >
<path style="stroke: none; stroke-width: 1; stroke-dasharray: none; stroke-linecap: butt; stroke-dashoffset: 0; stroke-linejoin: miter; stroke-miterlimit: 4; fill: rgb(108,117,125); fill-rule: nonzero; opacity: 1;"  transform=" translate(-248, -249.8)" d="M 165.9 397.4 C 165.9 399.4 163.6 401 160.70000000000002 401 C 157.4 401.3 155.10000000000002 399.7 155.10000000000002 397.4 C 155.10000000000002 395.4 157.40000000000003 393.79999999999995 160.3 393.79999999999995 C 163.3 393.49999999999994 165.9 395.09999999999997 165.9 397.4 z M 134.8 392.9 C 134.10000000000002 394.9 136.10000000000002 397.2 139.10000000000002 397.79999999999995 C 141.70000000000002 398.79999999999995 144.70000000000002 397.79999999999995 145.3 395.79999999999995 C 145.9 393.79999999999995 144 391.49999999999994 141 390.59999999999997 C 138.4 389.9 135.5 390.9 134.8 392.9 z M 179 391.2 C 176.1 391.9 174.1 393.8 174.4 396.09999999999997 C 174.70000000000002 398.09999999999997 177.3 399.4 180.3 398.7 C 183.20000000000002 398 185.20000000000002 396.09999999999997 184.9 394.09999999999997 C 184.6 392.2 181.9 390.9 179 391.2 z M 244.8 8 C 106.1 8 0 113.3 0 252 C 0 362.9 69.8 457.8 169.5 491.2 C 182.3 493.5 186.8 485.59999999999997 186.8 479.09999999999997 C 186.8 472.9 186.5 438.7 186.5 417.7 C 186.5 417.7 116.5 432.7 101.8 387.9 C 101.8 387.9 90.39999999999999 358.79999999999995 74 351.29999999999995 C 74 351.29999999999995 51.1 335.59999999999997 75.6 335.9 C 75.6 335.9 100.5 337.9 114.19999999999999 361.7 C 136.1 400.3 172.79999999999998 389.2 187.1 382.59999999999997 C 189.4 366.59999999999997 195.9 355.49999999999994 203.1 348.9 C 147.2 342.7 90.8 334.59999999999997 90.8 238.39999999999998 C 90.8 210.89999999999998 98.39999999999999 197.09999999999997 114.4 179.49999999999997 C 111.80000000000001 172.99999999999997 103.30000000000001 146.2 117 111.59999999999997 C 137.9 105.09999999999997 186 138.59999999999997 186 138.59999999999997 C 206 132.99999999999997 227.5 130.09999999999997 248.8 130.09999999999997 C 270.1 130.09999999999997 291.6 132.99999999999997 311.6 138.59999999999997 C 311.6 138.59999999999997 359.70000000000005 104.99999999999997 380.6 111.59999999999997 C 394.3 146.29999999999995 385.8 172.99999999999997 383.20000000000005 179.49999999999997 C 399.20000000000005 197.19999999999996 409.00000000000006 210.99999999999997 409.00000000000006 238.39999999999998 C 409.00000000000006 334.9 350.1000000000001 342.59999999999997 294.20000000000005 348.9 C 303.40000000000003 356.79999999999995 311.20000000000005 371.79999999999995 311.20000000000005 395.29999999999995 C 311.20000000000005 428.99999999999994 310.90000000000003 470.69999999999993 310.90000000000003 478.9 C 310.90000000000003 485.4 315.50000000000006 493.29999999999995 328.20000000000005 491 C 428.2 457.8 496 362.9 496 252 C 496 113.3 383.5 8 244.8 8 z M 97.2 352.9 C 95.9 353.9 96.2 356.2 97.9 358.09999999999997 C 99.5 359.7 101.80000000000001 360.4 103.10000000000001 359.09999999999997 C 104.4 358.09999999999997 104.10000000000001 355.79999999999995 102.4 353.9 C 100.80000000000001 352.29999999999995 98.5 351.59999999999997 97.2 352.9 z M 86.4 344.79999999999995 C 85.7 346.09999999999997 86.7 347.69999999999993 88.7 348.69999999999993 C 90.3 349.69999999999993 92.3 349.3999999999999 93 347.99999999999994 C 93.7 346.69999999999993 92.7 345.09999999999997 90.7 344.09999999999997 C 88.7 343.49999999999994 87.10000000000001 343.79999999999995 86.4 344.79999999999995 z M 118.80000000000001 380.4 C 117.20000000000002 381.7 117.80000000000001 384.7 120.10000000000001 386.59999999999997 C 122.4 388.9 125.30000000000001 389.2 126.60000000000001 387.59999999999997 C 127.9 386.29999999999995 127.30000000000001 383.29999999999995 125.30000000000001 381.4 C 123.10000000000001 379.09999999999997 120.10000000000001 378.79999999999995 118.80000000000001 380.4 z M 107.4 365.7 C 105.80000000000001 366.7 105.80000000000001 369.3 107.4 371.59999999999997 C 109 373.9 111.7 374.9 113 373.9 C 114.6 372.59999999999997 114.6 370 113 367.7 C 111.6 365.4 109 364.4 107.4 365.7 z" stroke-linecap="round" />
</g>
<g transform="matrix(0 0 0 0 0 0)"  >
<g style=""   >
</g>
</g>
<g transform="matrix(NaN NaN NaN NaN 0 0)"  >
<g style=""   >
</g>
</g>
</svg>