<?xml version="1.0" encoding="UTF-8" standalone="no" ?>
<!DOCTYPE svg PUBLIC "-//W3C//DTD SVG 1.1//EN" "http://www.w3.org/Graphics/SVG/1.1/DTD/svg11.dtd">
<svg xmlns="http://www.w3.org/2000/svg" xmlns:xlink="http://www.w3.org/1999/xlink" version="1.1" width="1080" height="1080" viewBox="0 0 1080 1080" xml:space="preserve">
<desc>Created with Fabric.js 5.2.4</desc>
<defs>
</defs>
<g transform="matrix(1 0 0 1 540 540)" id="bd3d7b8d-2f94-439d-864d-272bfc98a55b"  >
</g>
<g transform="matrix(1 0 0 1 540 540)" id="9fed612d-a384-4fd2-bc27-6e64ba7f71c7"  >
<rect style="stroke: none; stroke-width: 1; stroke-dasharray: none; stroke-linecap: butt; stroke-dashoffset: 0; stroke-linejoin: miter; stroke-miterlimit: 4; fill: rgb(255,255,255); fill-rule: nonzero; opacity: 1; visibility: hidden;" vector-effect="non-scaling-stroke"  x="-540" y="-540" rx="0" ry="0" width="1080" height="1080" />
</g>
<g transform="matrix(2.41 0 0 2.41 539.84 539.84)"  >
<path style="stroke: none; stroke-width: 1; stroke-dasharray: none; stroke-linecap: butt; stroke-dashoffset: 0; stroke-linejoin: miter; stroke-miterlimit: 4; fill: rgb(108,117,125); fill-rule: nonzero; opacity: 1;"  transform=" translate(-224, -224)" d="M 100.28 448 L 7.4 448 L 7.4 148.9 L 100.28 148.9 z M 53.79 108.1 C 24.09 108.1 0 83.5 0 53.8 C 0 24.092603306601617 24.08260330660162 0.00999999999999801 53.79 0.00999999999999801 C 83.49739669339837 0.00999999999999801 107.57999999999998 24.092603306601603 107.58 53.79999999999998 C 107.58 83.5 83.47999999999999 108.1 53.79 108.1 z M 447.9 448 L 355.21999999999997 448 L 355.21999999999997 302.4 C 355.21999999999997 267.7 354.52 223.2 306.92999999999995 223.2 C 258.63999999999993 223.2 251.23999999999995 260.9 251.23999999999995 299.9 L 251.23999999999995 448 L 158.45999999999995 448 L 158.45999999999995 148.9 L 247.53999999999996 148.9 L 247.53999999999996 189.7 L 248.83999999999997 189.7 C 261.23999999999995 166.2 291.53 141.39999999999998 336.71999999999997 141.39999999999998 C 430.71999999999997 141.39999999999998 448 203.29999999999998 448 283.7 L 448 448 z" stroke-linecap="round" />
</g>
<g transform="matrix(0 0 0 0 0 0)"  >
<g style=""   >
</g>
</g>
<g transform="matrix(NaN NaN NaN NaN 0 0)"  >
<g style=""   >
</g>
</g>
<g transform="matrix(NaN NaN NaN NaN 0 0)"  >
<g style=""   >
</g>
</g>
</svg>